<?xml version="1.0" standalone="no"?>
<!DOCTYPE svg PUBLIC "-//W3C//DTD SVG 20010904//EN"
 "http://www.w3.org/TR/2001/REC-SVG-20010904/DTD/svg10.dtd">
<svg version="1.0" xmlns="http://www.w3.org/2000/svg"
 width="32.000000pt" height="32.000000pt" viewBox="0 0 32.000000 32.000000"
 preserveAspectRatio="xMidYMid meet">

<g transform="translate(0.000000,32.000000) scale(0.100000,-0.100000)"
fill="#DF2E38" stroke="none">
<path d="M90 155 c0 -97 1 -105 20 -105 16 0 19 8 22 56 2 40 8 60 20 67 29
19 48 -9 48 -69 0 -47 2 -54 20 -54 18 0 20 7 20 60 0 83 -36 119 -91 90 -17
-10 -19 -7 -19 25 0 28 -4 35 -20 35 -19 0 -20 -7 -20 -105z"/>
</g>
</svg>
